<svg width="63" height="63" viewBox="0 0 63 63" fill="none" xmlns="http://www.w3.org/2000/svg">
<path d="M48.4193 22.2121H48.726L48.7235 21.9053L48.6809 16.7529C48.6704 15.4837 50.1273 14.7607 51.1317 15.5366L60.931 23.1063C61.7226 23.7179 61.7185 24.9139 60.9228 25.5201L51.1662 32.9516C50.1649 33.7142 48.7235 33.0002 48.7235 31.7416V26.3736V26.0694H48.4193H17.9199C17.0798 26.0694 16.3988 25.3884 16.3988 24.5484V23.7331C16.3988 22.8931 17.0798 22.2121 17.9199 22.2121H48.4193Z" fill="#9FD6F5" stroke="#455A66" stroke-width="0.608419"/>
<path d="M14.5807 40.2079H14.274L14.2765 40.5146L14.3191 45.667C14.3296 46.9362 12.8727 47.6592 11.8683 46.8833L2.06904 39.3136C1.2774 38.7021 1.28146 37.506 2.07723 36.8999L11.8338 29.4683C12.8351 28.7057 14.2765 29.4197 14.2765 30.6784V36.0463V36.3505H14.5807H45.0801C45.9202 36.3505 46.6012 37.0315 46.6012 37.8715V38.6868C46.6012 39.5269 45.9202 40.2079 45.0801 40.2079H14.5807Z" fill="#9FD6F5" stroke="#455A66" stroke-width="0.608419"/>
</svg>
