<?xml version="1.0" encoding="utf-8"?>
<!-- Generator: Adobe Illustrator 25.3.1, SVG Export Plug-In . SVG Version: 6.00 Build 0)  -->
<svg version="1.1" id="Layer_1" xmlns="http://www.w3.org/2000/svg" xmlns:xlink="http://www.w3.org/1999/xlink" x="0px" y="0px"
	 viewBox="0 0 58 58" style="enable-background:new 0 0 58 58;" xml:space="preserve">
<style type="text/css">
	.st0{fill:#BBBBBB;stroke:#282828;stroke-width:1.16;}
	.st1{fill:#9FD6F5;stroke:#455A66;stroke-width:0.58;}
</style>
<path class="st0" d="M25.8,11.6c1.3,0,2.5,0.8,3.1,2.1c0.7,1.8,1.7,4,2,4.9c0.2,0.5,0.7,0.8,1.2,0.8h19.7c0.5,0,0.9,0.2,1.2,0.5
	c0.3,0.3,0.5,0.8,0.5,1.2v27.8c0,1.4-1,2.4-2.1,2.4H6.3c-1.1,0-2.1-1-2.1-2.4V14c0-1.4,1-2.4,2.1-2.4L25.8,11.6
	C25.7,11.6,25.8,11.6,25.8,11.6z"/>
<path class="st1" d="M26.9,31.8h0.3v-0.3v-5c0-1,0.8-1.9,1.9-1.9c1,0,1.9,0.8,1.9,1.9v5v0.3h0.3h5c1,0,1.9,0.8,1.9,1.9
	c0,1-0.8,1.9-1.9,1.9h-5h-0.3v0.3v5c0,1-0.8,1.9-1.9,1.9c-1,0-1.9-0.8-1.9-1.9v-5v-0.3h-0.3h-5c-1,0-1.9-0.8-1.9-1.9
	c0-1,0.8-1.9,1.9-1.9H26.9z"/>
</svg>
