<svg width="58" height="58" viewBox="0 0 58 58" fill="none" xmlns="http://www.w3.org/2000/svg">
<path d="M53.5896 30.9555C53.3485 31.2337 52.9264 31.2609 52.6516 31.016L30.1046 10.9178C29.4751 10.3567 28.525 10.3567 27.8955 10.9178L5.3484 31.0161C5.07362 31.261 4.65157 31.2338 4.41048 30.9556L3.57264 29.9889C3.33653 29.7165 3.36272 29.305 3.63146 29.0647L28.5598 6.77338C28.8103 6.54936 29.1892 6.54936 29.4397 6.77338L29.773 6.40066L29.4397 6.77338L54.3682 29.0648C54.6369 29.305 54.6631 29.7165 54.427 29.9889L53.5896 30.9555Z" fill="#BBBBBB" stroke="#282828"/>
<path d="M28.556 13.7668C28.8078 13.538 29.1922 13.538 29.444 13.7668L48.2215 30.8373C48.3591 30.9624 48.4375 31.1397 48.4375 31.3256V51.4025C48.4375 51.767 48.142 52.0625 47.7775 52.0625H34.4375H23.5625H10.2225C9.85799 52.0625 9.5625 51.767 9.5625 51.4025V31.3256C9.5625 31.1397 9.64094 30.9624 9.77854 30.8373L28.556 13.7668Z" fill="#BBBBBB" stroke="#282828"/>
<mask id="path-3-inside-1" fill="white">
<rect x="23.78" y="35.96" width="9.86" height="16.24" rx="0.58"/>
</mask>
<rect x="23.78" y="35.96" width="9.86" height="16.24" rx="0.58" fill="#9FD6F5" stroke="#455A66" stroke-width="2" mask="url(#path-3-inside-1)"/>
</svg>
