<svg width="58" height="58" viewBox="0 0 58 58" fill="none" xmlns="http://www.w3.org/2000/svg">
<path d="M50.0334 36.9289L50.0353 36.9309C51.1688 38.0557 51.9823 39.4596 52.3944 41.0007L52.3946 41.0014C52.8087 42.5418 52.8067 44.1657 52.3889 45.7039C52.2831 46.0743 51.9872 46.3632 51.6105 46.4616C51.233 46.558 50.8336 46.4483 50.5609 46.174L50.5609 46.174L50.5567 46.1699L47.4806 43.148C46.3915 42.0184 44.6149 41.925 43.4137 42.9359L43.4081 42.9406L43.4025 42.9456C42.8109 43.4742 42.4626 44.2224 42.4406 45.0151L42.4406 45.0169C42.4214 45.8106 42.728 46.5754 43.2924 47.1347C43.2927 47.135 43.2929 47.1353 43.2932 47.1356L46.4683 50.3107C46.7058 50.5907 46.7902 50.9698 46.6946 51.3257C46.5969 51.6807 46.3297 51.9643 45.9819 52.0838C43.8752 52.6611 41.632 52.4583 39.6601 51.5173C37.6848 50.5724 36.1195 48.947 35.2476 46.9391L35.2475 46.9389C34.3736 44.9291 34.2575 42.6743 34.9147 40.5865L35.0053 40.2986L34.7929 40.0843L18.0633 23.2098L17.8377 22.9822L17.5366 23.0922C15.4511 23.8547 13.1598 23.8288 11.0941 23.0172L11.0937 23.017C9.02807 22.2075 7.32942 20.6679 6.32013 18.69L6.32003 18.6898C5.31177 16.7161 5.05994 14.4401 5.61192 12.2925C5.71849 11.9235 6.01377 11.6358 6.38947 11.5376C6.76705 11.4413 7.16644 11.551 7.43914 11.8252L7.43911 11.8253L7.4433 11.8294L10.5195 14.8513C11.6086 15.9809 13.3851 16.0743 14.5863 15.0634L14.5966 15.0547L14.6065 15.0454C15.1851 14.5025 15.5143 13.7429 15.5143 12.9499C15.5143 12.1603 15.1881 11.4041 14.6142 10.8616L11.5436 7.73681C11.2834 7.45882 11.1831 7.06472 11.2794 6.69643L11.28 6.69402C11.374 6.32726 11.6504 6.03478 12.0139 5.91662C14.1815 5.32762 16.4901 5.56448 18.4971 6.57878C20.5049 7.59453 22.064 9.31889 22.8736 11.4192L23.3401 11.2393L22.8736 11.4192C23.6833 13.5196 23.6853 15.8452 22.878 17.9451L22.7609 18.2496L22.9925 18.4794L39.5225 34.8824L39.7575 35.1157L40.064 34.9903L40.4553 34.8302C42.0828 34.2249 43.8515 34.1013 45.5474 34.4722L45.5476 34.4722C47.2482 34.8437 48.8052 35.6965 50.0334 36.9289Z" fill="#BBBBBB" stroke="#282828"/>
<path d="M19.936 35.0732L19.9361 35.0732C20.7684 34.2764 22.0791 34.2764 22.9114 35.0732L22.9206 35.0821L22.9205 35.0822C23.3155 35.4802 23.5308 36.0203 23.5188 36.579C23.5249 37.1344 23.3108 37.6682 22.9245 38.0664L22.9187 38.0723L22.9187 38.0722L16.068 44.9045C15.2475 45.7251 13.9159 45.7251 13.0953 44.9045C12.2749 44.0841 12.2748 42.7529 13.0949 41.9323L19.936 35.0732ZM19.936 35.0732L19.9278 35.0813L13.0953 41.9318L19.936 35.0732ZM15.9589 49.3269L15.9589 49.3269C13.9476 51.3384 10.6845 51.3382 8.67301 49.3269C6.66166 47.3157 6.66156 44.0528 8.67276 42.0413C8.67285 42.0412 8.67294 42.0411 8.67303 42.0411L20.2821 30.4494L27.5674 37.7184L15.9589 49.3269Z" fill="#9FD6F5" stroke="#455A66"/>
<path d="M44.7051 15.959L35.0897 25.5744L32.3731 22.8579L42.0387 13.2969L42.3901 12.9493L42.0465 12.5939C41.8029 12.3419 41.5619 12.0913 41.4512 11.8565C41.4006 11.7493 41.4034 11.6968 41.4068 11.6798C41.4069 11.6797 41.4069 11.6796 41.4069 11.6794C41.4081 11.673 41.4175 11.6228 41.5329 11.5426L46.9533 7.92901C47.0887 7.85421 47.2582 7.87627 47.3708 7.98612C47.3712 7.9865 47.3716 7.98688 47.372 7.98726L49.9762 10.5914C49.9766 10.5918 49.9769 10.5922 49.9773 10.5926C50.0872 10.7053 50.1092 10.8748 50.0344 11.0101L46.4185 16.4341L46.4141 16.4406L46.41 16.4473C46.3603 16.5271 46.2782 16.5799 46.1899 16.5926L46.1899 16.5926L46.186 16.5932C46.1019 16.606 46.0149 16.5827 45.9476 16.5297L45.4235 15.9705L45.0703 15.5938L44.7051 15.959Z" fill="#BBBBBB" stroke="#282828"/>
<rect x="23.3271" y="24.2605" width="1.32" height="14.66" rx="0.66" transform="rotate(-45 23.3271 24.2605)" fill="#9FD6F5" stroke="#455A66"/>
</svg>