<svg width="63" height="63" viewBox="0 0 63 63" fill="none" xmlns="http://www.w3.org/2000/svg">
<path d="M46.9897 47.2183L47.0049 47.2197H47.0202C47.6195 47.2197 48.1257 47.5351 48.7833 47.9962C49.5699 48.9891 49.4385 50.4806 48.4694 51.2782L48.4694 51.2782L48.4658 51.2812C43.7475 55.2776 37.7819 57.4413 31.6211 57.4413C17.2002 57.4413 5.53295 45.7731 5.53271 31.4211C5.53271 31.421 5.53271 31.4208 5.53271 31.4207L5.5353 30.1612L5.53598 29.8286H5.2034H2.34849C1.60197 29.8286 0.920237 29.427 0.581195 28.8065C0.239235 28.176 0.241245 27.4454 0.63578 26.822L6.27835 18.2638C6.27846 18.2636 6.27858 18.2635 6.27869 18.2633C6.61168 17.7631 7.23714 17.4162 7.92598 17.4162C8.63242 17.4162 9.23892 17.7081 9.56556 18.2511L9.56542 18.2511L9.57086 18.2596L15.081 26.8214L15.0808 26.8216L15.0886 26.8327C15.4703 27.3755 15.484 28.1607 15.1416 28.7962C14.7257 29.4418 14.0978 29.8286 13.3687 29.8286H10.5137H10.1818V30.1605V31.4207C10.1818 43.2206 19.7559 52.7947 31.5558 52.7947C36.5462 52.7947 41.468 50.9744 45.31 47.738L45.3101 47.7381L45.3151 47.7337C45.77 47.3345 46.3415 47.1585 46.9897 47.2183Z" fill="#9FD6F5" stroke="#455A66" stroke-width="0.663809"/>
<path d="M60.6963 33.0123C61.4319 33.0123 62.1046 33.4023 62.4485 34.0073L62.4629 34.0338C62.7942 34.6445 62.7408 35.3452 62.1842 35.8954L62.1582 35.9211L62.1384 35.9518L56.6283 44.5136L56.6281 44.5135L56.6224 44.523C56.2889 45.0811 55.6691 45.4245 54.9834 45.4245C54.2983 45.4245 53.6803 45.0815 53.3438 44.5222L53.3439 44.5221L53.3385 44.5136L47.8283 35.9518L47.8286 35.9517L47.8208 35.9405C47.4391 35.3977 47.4253 34.6125 47.7678 33.977C48.1837 33.3314 48.8116 32.9446 49.5407 32.9446H52.3956H52.7275V32.6127V31.4173C52.7275 19.6174 43.1535 10.0434 31.3535 10.0434C26.3638 10.0434 21.4426 11.8631 17.6008 15.0987C16.6082 15.9143 15.0926 15.7908 14.2863 14.811C13.4694 13.8184 13.5925 12.3018 14.5728 11.495L14.5728 11.495L14.5764 11.492C19.2947 7.49559 25.2602 5.3319 31.4211 5.3319C45.841 5.3319 57.5095 17.0669 57.5095 31.4203V32.6804V33.0123H57.8414H60.6963Z" fill="#9FD6F5" stroke="#455A66" stroke-width="0.663809"/>
</svg>
