<svg width="58" height="58" viewBox="0 0 58 58" fill="none" xmlns="http://www.w3.org/2000/svg">
<path d="M40.1807 37.7998H50.1596L47.6209 40.3439L47.6205 40.3443L47.6189 40.3458C46.2375 41.7273 44.861 43.1038 43.4823 44.478L43.4816 44.4786L39.4488 48.5114L37.8968 50.0635C37.8764 50.0839 37.8607 50.089 37.8496 50.0909C37.8354 50.0934 37.8162 50.0921 37.7956 50.0836C37.7751 50.0751 37.7606 50.0624 37.7523 50.0506C37.7459 50.0414 37.7384 50.0267 37.7384 49.9979V38.9915C37.7384 38.8891 37.7369 38.7999 37.7355 38.7166C37.7334 38.5864 37.7315 38.4703 37.7357 38.3397C37.7478 38.29 37.7614 38.2403 37.7763 38.1898C37.7954 38.1551 37.8166 38.1186 37.8391 38.0808C37.8455 38.0739 37.8527 38.066 37.8604 38.0577C37.881 38.0351 37.9049 38.0092 37.9233 37.9887C37.9437 37.9685 37.9555 37.9571 37.9631 37.9502C38.0123 37.9202 38.0609 37.892 38.1154 37.8604C38.1306 37.8515 38.1464 37.8424 38.1627 37.8328C38.1639 37.8322 38.1649 37.8316 38.1658 37.8311C38.2045 37.8198 38.2484 37.8092 38.3057 37.7957C38.3119 37.7942 38.3151 37.7939 38.3156 37.7939C38.7029 37.7634 39.0717 37.7743 39.4706 37.7862C39.6949 37.7928 39.9288 37.7998 40.1807 37.7998Z" fill="#BBBBBB" stroke="#282828" stroke-width="1.16"/>
<path d="M35.9632 33.8465L35.962 33.8471C34.2341 34.7162 33.1955 36.5719 33.1732 38.4426C33.1689 38.5862 33.172 38.7534 33.1747 38.9017C33.1762 38.9836 33.1776 39.0598 33.1776 39.123C33.1776 39.123 33.1776 39.123 33.1776 39.1231L33.1754 52.1076C33.1754 52.159 33.1307 52.2091 33.0694 52.2091L33.0484 52.2091H8.863C7.5106 52.2091 6.82578 51.9199 6.43211 51.4182C6.0046 50.8735 5.79082 49.9292 5.79082 48.2873V8.88784C5.79082 8.15393 5.97089 7.36932 6.40363 6.78391C6.81607 6.22594 7.49861 5.79097 8.65461 5.79097H48.7836C49.9954 5.79097 50.8248 6.12208 51.3555 6.67161C51.8896 7.22456 52.2087 8.08897 52.2087 9.33465V33.142C52.2087 33.1933 52.1671 33.2348 52.1159 33.2348L38.6581 33.237C38.6581 33.237 38.6581 33.237 38.658 33.237C37.7272 33.237 36.8251 33.4155 35.9632 33.8465Z" fill="#BBBBBB" stroke="#282828" stroke-width="1.16"/>
<rect x="11.31" y="12.47" width="35.38" height="5.22" rx="2.61" fill="#9FD6F5" stroke="#455A66" stroke-width="0.58"/>
<rect x="11.31" y="25.23" width="35.38" height="5.22" rx="2.61" fill="#9FD6F5" stroke="#455A66" stroke-width="0.58"/>
<rect x="11.31" y="38.57" width="18.56" height="5.22" rx="2.61" fill="#9FD6F5" stroke="#455A66" stroke-width="0.58"/>
</svg>