<svg width="136" height="34" viewBox="0 0 136 34" fill="none" xmlns="http://www.w3.org/2000/svg">
    <path d="M5.22656 1.42188L14.5078 25.0469L22.6641 3.71875L31.0781 25.1406L40.1484 1.42188H42.6797L30.7266 32.7578H29.1797L21.4922 13.375L14.1328 32.7578H12.3516L0 1.42188H5.22656ZM67.0781 1.42188V3.4375H51.9141V14.5469H62.8828V16.5625H51.9141V32.5H46.6875V1.42188H67.0781ZM71.5781 1.42188H74.5078L94.875 24.1562H95.1094V1.42188H97.4062V33.2266H96.1875L74.1328 7.96094H73.9453V32.5H71.5781V1.42188ZM123.516 2.94531C121.641 2.94531 119.906 3.28125 118.312 3.95312C116.734 4.60938 115.367 5.5625 114.211 6.8125C113.07 8.04688 112.18 9.54688 111.539 11.3125C110.898 13.0625 110.578 15.0234 110.578 17.1953C110.578 19.3828 110.922 21.3594 111.609 23.125C112.312 24.875 113.266 26.3672 114.469 27.6016C115.688 28.8359 117.117 29.7891 118.758 30.4609C120.398 31.1172 122.156 31.4453 124.031 31.4453C125.391 31.4453 126.617 31.2656 127.711 30.9062C128.805 30.5312 129.789 30 130.664 29.3125V18.4141H124.781V16.5625H135.891V30.2266C134.984 30.7109 134.07 31.1406 133.148 31.5156C132.227 31.8906 131.227 32.2031 130.148 32.4531C129.086 32.7031 127.914 32.8906 126.633 33.0156C125.352 33.1562 123.898 33.2266 122.273 33.2266C120.555 33.2266 118.922 33.0312 117.375 32.6406C115.828 32.2656 114.391 31.7266 113.062 31.0234C111.75 30.3203 110.562 29.4844 109.5 28.5156C108.438 27.5312 107.531 26.4453 106.781 25.2578C106.047 24.0703 105.477 22.7969 105.07 21.4375C104.664 20.0781 104.461 18.6641 104.461 17.1953C104.461 15.7422 104.648 14.3281 105.023 12.9531C105.414 11.5625 105.969 10.2578 106.688 9.03906C107.406 7.80469 108.281 6.67969 109.312 5.66406C110.344 4.64844 111.508 3.77344 112.805 3.03906C114.102 2.30469 115.516 1.73437 117.047 1.32812C118.578 0.921875 120.203 0.71875 121.922 0.71875C123.562 0.71875 125.078 0.945313 126.469 1.39844C127.875 1.83594 129.148 2.42188 130.289 3.15625C131.445 3.89062 132.469 4.74219 133.359 5.71094C134.25 6.66406 135.016 7.66406 135.656 8.71094L133.406 10.2109C132.094 7.69531 130.633 5.85938 129.023 4.70312C127.43 3.53125 125.594 2.94531 123.516 2.94531Z" fill="#282828"/>
</svg>
