<svg width="64" height="64" viewBox="0 0 64 64" fill="none" xmlns="http://www.w3.org/2000/svg">
    <path d="M61.6358 26.9865L61.6358 26.9866L61.6481 26.9874C62.6915 27.0553 63.5032 27.9244 63.5 28.9722V28.9737L63.4999 35.0373L63.5 35.0404C63.5064 36.0816 62.7076 36.9523 61.6685 37.0365L61.6662 37.0367L56.9505 37.4414L56.5892 37.4724L56.5064 37.8255C55.8953 40.4327 54.8675 42.9285 53.459 45.2098L53.2691 45.5174L53.5017 45.7941L56.5486 49.4196C56.549 49.42 56.5493 49.4204 56.5496 49.4208C57.2182 50.223 57.1533 51.4023 56.3998 52.1267L56.3997 52.1267L56.3927 52.1336L52.1344 56.3919C51.416 57.1103 50.2155 57.1678 49.4295 56.5082L45.8029 53.4604L45.5261 53.2279L45.2185 53.4178C42.9371 54.8263 40.4453 55.8539 37.8343 56.4651L37.4811 56.5477L37.4501 56.9091L37.0453 61.6248L37.0452 61.6248L37.0446 61.6344C36.9733 62.7066 36.07 63.5284 34.9988 63.4992L34.9988 63.4991H34.9852L28.9742 63.499L28.9711 63.4991C27.9299 63.5055 27.0592 62.7067 26.975 61.6677L26.9748 61.6653L26.57 56.9497L26.539 56.5884L26.186 56.5056C23.5788 55.8945 21.0829 54.8667 18.8016 53.4583L18.494 53.2684L18.2172 53.501L14.5917 56.5478C13.7894 57.2174 12.6093 57.1529 11.8845 56.399L11.8846 56.3989L11.8776 56.3919L7.58699 52.1013L7.58621 52.1006C6.85258 51.3702 6.80285 50.1948 7.47042 49.4009L7.47067 49.4006L10.4985 45.794L10.7305 45.5176L10.5413 45.2104C9.13637 42.9284 8.10467 40.4323 7.4936 37.8255L7.41084 37.4725L7.04956 37.4415L2.33384 37.0367L2.33144 37.0365C1.29238 36.9524 0.493501 36.0817 0.50005 35.0405V35.0374L0.50006 28.9738L0.50004 28.9707C0.493574 27.9295 1.29244 27.0588 2.33146 26.9747L2.33384 26.9744L7.04956 26.5697L7.41085 26.5387L7.4936 26.1856C8.10473 23.5784 9.13251 21.0826 10.541 18.8013L10.7309 18.4937L10.4983 18.217L7.45029 14.5902L7.45021 14.5901C6.78264 13.7962 6.83238 12.6208 7.566 11.8904L7.56678 11.8896L11.8574 7.59902L11.859 7.59746C12.5902 6.85983 13.7679 6.80826 14.5602 7.48091L14.5602 7.48094L14.5656 7.48543L18.2207 10.5011L18.4965 10.7286L18.801 10.5412C21.0831 9.13625 23.5792 8.10456 26.186 7.4935L26.539 7.41074L26.57 7.04946L26.9748 2.3338L26.975 2.33153C27.0592 1.29517 27.9234 0.496818 28.9644 0.500049H28.966L35.0378 0.500058L35.0409 0.500039C36.082 0.493573 36.9527 1.29243 37.0369 2.33142L37.0371 2.3338L37.4419 7.04946L37.4729 7.41075L37.826 7.4935C40.4332 8.10462 42.929 9.13239 45.2104 10.5408L45.518 10.7307L45.7947 10.4982L49.4215 7.45021L49.4242 7.44793C50.2118 6.77658 51.3889 6.8271 52.1205 7.56501C52.1205 7.56505 52.1206 7.56509 52.1206 7.56513L56.3909 11.8759L56.3942 11.8791C57.1318 12.6103 57.1834 13.788 56.5107 14.5803L56.5091 14.5822L53.4611 18.209L53.2285 18.4858L53.4184 18.7934C54.827 21.0748 55.8546 23.5665 56.4658 26.1775L56.5481 26.5292L56.9078 26.5615L61.6358 26.9865ZM44.9251 32.0102V32.0099C44.9293 25.8373 40.5755 20.5239 34.5208 19.3156C28.4661 18.1072 22.403 21.3451 20.0402 27.0503C17.6781 32.7514 19.6739 39.3286 24.8066 42.7553C29.9391 46.1826 36.7808 45.509 41.1432 41.1426L41.1437 41.1421C43.5603 38.7172 44.9209 35.4333 44.9251 32.0102ZM32.0026 26.1587L32.005 26.1586C33.5718 26.1512 35.0789 26.7705 36.1867 27.8782L36.5402 27.5247L36.1867 27.8783C37.2944 28.9859 37.9137 30.4931 37.9063 32.0598V32.0622C37.9063 34.4503 36.4659 36.6037 34.2601 37.5181C32.055 38.4323 29.5134 37.9249 27.8267 36.2381C26.1396 34.5469 25.6327 32.0094 26.5466 29.8048L26.5468 29.8045C27.461 27.5954 29.6141 26.1586 32.0026 26.1587Z" fill="#BBBBBB" stroke="#282828"/>
    <path d="M25.8142 15.0802L25.3394 15.238L25.4974 15.7127L25.9056 16.9385C26.0342 17.3248 25.6719 17.6946 25.283 17.5739L20.8931 16.2114C20.5625 16.1088 20.4337 15.7095 20.6419 15.4331L23.3625 11.8211C23.6048 11.4993 24.1087 11.5816 24.2362 11.9637L24.5653 12.9503L24.7233 13.424L25.1973 13.2665C27.2491 12.5849 29.4455 12.2079 31.7316 12.2079C41.0009 12.2079 48.8128 18.2937 51.1968 26.5547C51.2448 26.7211 51.1915 26.9092 51.049 27.0355L50.298 27.7008C50.0164 27.9502 49.4824 27.8163 49.3623 27.3667C47.3223 19.7324 40.2101 14.119 31.7315 14.119C29.6591 14.119 27.6676 14.4644 25.8142 15.0802ZM18.4549 47.3507L18.811 46.9681L18.4131 46.6293C14.1765 43.0221 11.5 37.7279 11.5 31.8467C11.5 26.5004 13.7076 21.6564 17.2916 18.1074C17.4095 17.9906 17.5892 17.945 17.7629 17.9976L18.1846 18.1255L18.1881 18.1266L18.6917 18.2834C19.0583 18.3975 19.2159 18.9418 18.8751 19.2713C15.559 22.4776 13.5095 26.9204 13.5095 31.8463C13.5095 37.1963 15.9339 41.9797 19.7674 45.2232L20.1323 45.5319L20.4571 45.1813L21.3789 44.1864C21.6526 43.8909 22.1455 44.0239 22.2336 44.417L23.2096 48.7762C23.2842 49.1098 23.0096 49.4183 22.6696 49.3827L18.1025 48.9046C17.6923 48.8617 17.5075 48.3686 17.7885 48.0667L18.4549 47.3507ZM49.6084 35.2563L49.7052 34.7709L49.2208 34.6692L47.9185 34.3958C47.5158 34.3112 47.3819 33.8035 47.6906 33.5314L51.093 30.5315C51.3452 30.3092 51.7404 30.394 51.8791 30.7002L53.7338 34.7933C53.9025 35.1656 53.5775 35.572 53.1772 35.4893L52.1525 35.2777L51.6613 35.1763L51.5614 35.6678C49.7308 44.6719 41.5497 51.5 31.7321 51.5C29.9931 51.5 28.2993 51.2837 26.6879 50.8812C26.5217 50.8397 26.3867 50.7028 26.3462 50.5198L26.1432 49.603C26.0613 49.2329 26.4419 48.8327 26.8906 48.9514C28.4334 49.3597 30.0575 49.5743 31.7321 49.5743C40.6045 49.5743 47.9776 43.4371 49.6084 35.2563Z" fill="#9FD6F5" stroke="#455A66"/>
</svg>